<mxfile host="app.diagrams.net" modified="2021-06-30T02:59:29.014Z" agent="5.0 (Macintosh; Intel Mac OS X 10_14_2) AppleWebKit/537.36 (KHTML, like Gecko) Chrome/91.0.4472.114 Safari/537.36" etag="iTe6Dy8uEclwl-VxZhUi" version="14.8.2" type="github">
  <diagram id="CbhpPbNnjzJ3yGWywIE5" name="Page-1">
    <mxGraphModel dx="758" dy="566" grid="1" gridSize="10" guides="1" tooltips="1" connect="1" arrows="1" fold="1" page="1" pageScale="1" pageWidth="827" pageHeight="1169" math="0" shadow="0">
      <root>
        <mxCell id="0" />
        <mxCell id="1" parent="0" />
      </root>
    </mxGraphModel>
  </diagram>
</mxfile>
